<svg width="118" height="40" viewBox="0 0 118 40" fill="none" xmlns="http://www.w3.org/2000/svg">
<path d="M17.2346 10.2495C13.4807 10.2495 9.81278 11.7001 7.07392 14.2705C4.06866 17.0922 2.16643 21.2587 1.0744 25.1783C0.361066 27.7443 0.00219727 30.4051 0.00219727 33.0659C0.00219727 33.8705 0.035221 34.6686 0.0990691 35.4578C0.176127 36.4189 1.10963 37.0825 2.03873 36.8312C2.84894 36.6129 3.70098 36.4961 4.58164 36.4961C6.387 36.4961 8.08008 36.9877 9.52877 37.8474C9.564 37.8673 9.59922 37.8893 9.63445 37.9091C11.9924 39.3178 14.7731 40.0894 17.7387 39.9902C25.4754 39.7322 31.7963 33.4296 32.0803 25.6853C32.393 17.2113 25.6251 10.2451 17.2324 10.2451L17.2346 10.2495ZM17.2346 31.924C13.4851 31.924 10.4447 28.8796 10.4447 25.1254C10.4447 21.3711 13.4851 18.3267 17.2346 18.3267C20.984 18.3267 24.0245 21.3711 24.0245 25.1254C24.0245 28.8796 20.984 31.924 17.2346 31.924Z" fill="#14AAFF"/>
<path d="M11.125 5.56631C11.125 7.5261 10.099 9.34479 8.41474 10.3456C7.35794 10.9739 6.36499 11.7146 5.46892 12.5589C3.47642 14.4283 1.9903 16.721 0.88947 18.9938C0.673707 19.4413 0 19.2826 0 18.7866V5.56852C0 2.49327 2.49008 0 5.56139 0C8.6327 0 11.1228 2.49327 11.1228 5.56852L11.125 5.56631Z" fill="#0075FF"/>
<path fill-rule="evenodd" clip-rule="evenodd" d="M47.1419 17.3706H43.4982V13.1469C43.4982 12.6729 43.1129 12.2871 42.6395 12.2871H40.8099C40.3366 12.2871 39.9513 12.6729 39.9513 13.1469V31.1332C39.9513 31.6072 40.3366 31.993 40.8099 31.993H47.252C49.2687 31.993 51.0939 31.1751 52.4149 29.8524C53.7403 28.5253 54.5571 26.6912 54.5527 24.6631C54.5417 20.6156 51.1864 17.3706 47.1419 17.3706ZM46.9614 28.7546C45.4973 28.7546 44.2137 27.9786 43.4982 26.8168C43.1173 26.1974 42.8971 25.4655 42.8971 24.6829C42.8971 23.9003 43.1173 23.1684 43.4982 22.549C44.2137 21.3872 45.4973 20.6112 46.9614 20.6112C49.2071 20.6112 51.0278 22.4321 51.0278 24.6829C51.0278 26.9337 49.2071 28.7546 46.9614 28.7546ZM57.2409 12.2871H59.1871C59.6614 12.2871 60.0458 12.672 60.0458 13.1469V31.1332C60.0458 31.608 59.6614 31.993 59.1871 31.993H57.2409C56.7667 31.993 56.3822 31.608 56.3822 31.1332V13.1469C56.3822 12.672 56.7667 12.2871 57.2409 12.2871ZM102.153 19.8727V18.2304C102.153 17.7564 101.767 17.3706 101.294 17.3706H99.4313C98.2138 17.3706 97.2252 16.383 97.2252 15.1618V13.1469C97.2252 12.6729 96.8399 12.2871 96.3666 12.2871H94.5392C94.0658 12.2871 93.6805 12.6729 93.6805 13.1469V31.1332C93.6805 31.6072 94.0658 31.993 94.5392 31.993H96.3666C96.8399 31.993 97.2252 31.6072 97.2252 31.1332V22.9414C97.2252 21.7223 98.2116 20.7325 99.4313 20.7325H101.294C101.767 20.7325 102.153 20.3467 102.153 19.8727ZM61.871 24.6788C61.871 20.4219 65.3188 16.9675 69.5724 16.9675C73.8238 16.9675 77.2738 20.4197 77.2738 24.6788C77.2738 28.9378 73.826 32.3901 69.5724 32.3901C65.3188 32.3901 61.871 28.9356 61.871 24.6788ZM65.506 24.681C65.506 26.9296 67.3267 28.7527 69.5724 28.7527C71.8181 28.7527 73.6389 26.9318 73.6389 24.681C73.6389 22.4302 71.8181 20.6093 69.5724 20.6093C67.3267 20.6093 65.506 22.4324 65.506 24.681ZM109.856 16.9675C105.603 16.9675 102.155 20.4219 102.155 24.6788C102.155 28.9356 105.603 32.3901 109.856 32.3901C114.11 32.3901 117.558 28.9378 117.558 24.6788C117.558 20.4197 114.108 16.9675 109.856 16.9675ZM109.856 28.7527C107.61 28.7527 105.79 26.9296 105.79 24.681C105.79 22.4324 107.61 20.6093 109.856 20.6093C112.102 20.6093 113.923 22.4302 113.923 24.681C113.923 26.9318 112.102 28.7527 109.856 28.7527ZM81.1047 29.8711C83.8656 32.9023 88.4164 33.1999 91.5317 30.7683V30.7727C91.9346 30.4575 91.9633 29.8535 91.6022 29.4919L90.2306 28.1185C89.9377 27.8253 89.4754 27.779 89.1385 28.0171C87.4763 29.1877 85.1337 28.9673 83.7291 27.3514C82.4081 25.8325 82.4081 23.531 83.7291 22.0143C85.1337 20.3984 87.4763 20.1758 89.1385 21.3486C89.4776 21.5867 89.9377 21.5404 90.2306 21.2472L91.6022 19.8738C91.9655 19.51 91.9346 18.9082 91.5317 18.593C88.4186 16.1592 83.7665 16.5671 81.1047 19.4902C78.4429 22.4133 78.4429 26.948 81.1047 29.8711Z" fill="#00325A"/>
</svg>
