<?xml version="1.0" encoding="utf-8"?>
<!-- Generator: Adobe Illustrator 26.2.1, SVG Export Plug-In . SVG Version: 6.00 Build 0)  -->
<svg version="1.1" id="圖層_1" xmlns="http://www.w3.org/2000/svg" xmlns:xlink="http://www.w3.org/1999/xlink" x="0px" y="0px"
	 viewBox="0 0 75 75" style="enable-background:new 0 0 75 75;" xml:space="preserve">
<style type="text/css">
	.st0{fill:#ADD3F0;}
	.st1{fill:#1C2D66;}
	.st2{fill:#347EB8;}
</style>
<path class="st0" d="M17.1,46.6c-0.2,0-0.4,0-0.6,0.1c-0.2,0.1-0.3,0.2-0.5,0.3c-0.1,0.1-0.2,0.3-0.3,0.5c-0.1,0.2-0.1,0.4-0.1,0.6
	c0.5,5.6,3.2,10.9,7.4,14.7c4.2,3.8,9.6,5.9,15.3,5.9c5.7,0,11.1-2.1,15.3-5.9c4.2-3.8,6.8-9,7.4-14.7c0-0.2,0-0.4-0.1-0.6
	c-0.1-0.2-0.2-0.4-0.3-0.5c-0.1-0.1-0.3-0.3-0.5-0.3s-0.4-0.1-0.6-0.1H17.1z"/>
<path class="st1" d="M17,6.3c5.2,0,10.3,2.1,14,5.8c3.7,3.7,5.8,8.7,5.8,14v16c0,0.4-0.1,0.7-0.4,1c-0.3,0.3-0.6,0.4-1,0.4H17
	c-0.4,0-0.7-0.1-1-0.4c-0.3-0.3-0.4-0.6-0.4-1V7.7c0-0.4,0.1-0.7,0.4-1C16.3,6.4,16.7,6.3,17,6.3L17,6.3z"/>
<path class="st2" d="M41.4,23.3h0.9c2.5,0,4.9,0.5,7.1,1.4s4.3,2.3,6.1,4.1c1.7,1.7,3.1,3.8,4,6.1c0.9,2.3,1.4,4.7,1.4,7.1v0.1
	c0,0.4-0.1,0.7-0.4,1c-0.3,0.3-0.6,0.4-1,0.4H49.1c-2.4,0-4.7-1-6.4-2.7c-1.7-1.7-2.7-4-2.7-6.4v-9.6c0-0.4,0.2-0.7,0.4-1
	C40.6,23.5,41,23.3,41.4,23.3L41.4,23.3z"/>
</svg>
