<svg width="48" height="48" viewBox="0 0 48 48" fill="none" xmlns="http://www.w3.org/2000/svg">
<path d="M26.9028 12.3024C22.3912 12.3024 17.9874 14.042 14.6952 17.128C11.0844 20.5137 8.7992 25.5138 7.48932 30.2173C6.6314 33.2953 6.20164 36.4876 6.20164 39.6814C6.20164 40.6472 6.24129 41.605 6.31741 42.5517C6.41097 43.703 7.53214 44.5007 8.64855 44.1994C9.62224 43.9377 10.6467 43.7966 11.7028 43.7966C13.8722 43.7966 15.9052 44.3865 17.648 45.4173C17.6908 45.4426 17.7321 45.468 17.7749 45.4918C20.6072 47.1807 23.9485 48.1084 27.5118 47.9895C36.8062 47.6818 44.3991 40.1191 44.7416 30.8262C45.1159 20.6596 36.987 12.3008 26.9044 12.3008L26.9028 12.3024ZM26.9028 38.3081C22.3975 38.3081 18.7454 34.656 18.7454 30.1523C18.7454 25.6486 22.3975 21.9948 26.9028 21.9948C31.4081 21.9948 35.0602 25.647 35.0602 30.1523C35.0602 34.6575 31.4081 38.3081 26.9028 38.3081Z" fill="#14AAFF"/>
<path d="M19.5637 6.68261C19.5637 9.03436 18.3315 11.2164 16.308 12.4153C15.0378 13.1686 13.8468 14.0582 12.7685 15.0715C10.3755 17.3139 8.58985 20.0653 7.26728 22.7929C7.00721 23.3304 6.20003 23.1402 6.20003 22.5423V6.68261C6.20003 2.99242 9.19245 0 12.8826 0C16.5728 0 19.5652 2.99242 19.5652 6.68261H19.5637Z" fill="#0075FF"/>
</svg>
